<svg id="Capa_1" enable-background="new 0 0 512 512" height="512" viewBox="0 0 512 512" width="512" xmlns="http://www.w3.org/2000/svg"><g><path d="m320.751 509.936h-178.168l35.014-91.601 54.07-28.794 54.069 28.794 9.801 25.626z" fill="#86beec"/><path d="m295.537 443.961h-79.727l-19.756 65.975h-53.471l35.014-91.601 54.07-28.794 54.069 28.794z" fill="#69afe7"/><path d="m288.245 276.942h-25.471v-80.785c0-8.016-6.522-14.538-14.538-14.538s-14.538 6.521-14.538 14.538v13.578h-25.471v-13.578c0-22.061 17.948-40.008 40.009-40.008 22.06 0 40.008 17.948 40.008 40.008v80.785z" fill="#f1f4f6"/><path d="m254.456 156.635c-19.127 2.992-33.797 19.581-33.797 39.523v13.576h-12.431v-13.576c0-22.057 17.951-40.008 40.008-40.008 2.114 0 4.188.165 6.22.485z" fill="#cedfe2"/><path d="m275.213 196.158v80.789h-12.442v-80.789c0-5.798-3.405-10.802-8.315-13.144 1.888-.887 3.993-1.393 6.221-1.393 8.016.001 14.536 6.521 14.536 14.537z" fill="#cedfe2"/><path d="m485.25 509.936h-30.95v-384.621l-96.834-96.834c-6.043-6.043-6.043-15.841 0-21.885 6.043-6.043 15.841-6.043 21.884 0l101.367 101.366c2.903 2.902 4.533 6.838 4.533 10.942z" fill="#86beec"/><path d="m469.981 118.369v391.567h-15.681v-384.624l-96.832-96.832c-6.046-6.045-6.046-15.836 0-21.881 3.012-3.022 6.974-4.529 10.936-4.529.877 0 1.764.073 2.631.227-3.817 5.984-3.105 14.02 2.115 19.24z" fill="#69afe7"/><path d="m215.806 308.292h36.81v73.848h-36.81z" fill="#cedfe2"/><path d="m466.521 472.592c-5.167 0-10.404-1.296-15.221-4.023l-88.712-50.231h-237.522c-11.616 0-22.254-6.504-27.548-16.844l-94.11-183.784c-7.791-15.214-1.773-33.863 13.442-41.654 15.213-7.792 33.864-1.772 41.654 13.442l85.485 166.941h226.753c5.345 0 10.599 1.384 15.249 4.018l95.807 54.248c14.874 8.422 20.105 27.307 11.683 42.182-5.694 10.057-16.173 15.705-26.96 15.705z" fill="#00da80"/><path d="m496.913 447.613c-.619 3.177-1.754 6.303-3.435 9.274-5.695 10.059-16.166 15.702-26.957 15.702-5.169 0-10.399-1.29-15.217-4.024l-88.713-50.232h-237.53c-11.606 0-22.253-6.499-27.545-16.837l-94.108-183.789c-7.789-15.207-1.775-33.859 13.442-41.648.113-.052.217-.113.33-.165-1.3 6.582-.475 13.639 2.816 20.076l94.108 183.79c5.292 10.338 15.939 16.837 27.556 16.837h237.52l88.713 50.232c4.818 2.734 10.048 4.023 15.217 4.023 4.797 0 9.522-1.114 13.803-3.239z" fill="#00a763"/><path d="m309.727 257.64c0 41.707-33.81 75.517-75.517 75.517s-75.517-33.81-75.517-75.517z" fill="#86beec"/><path d="m253.916 330.561c-6.283 1.692-12.885 2.6-19.705 2.6-41.71 0-75.518-33.818-75.518-75.517h39.409c.001 34.879 23.657 64.251 55.814 72.917z" fill="#69afe7"/><path d="m361.35 295.581h131.68c10.477 0 18.97-8.493 18.97-18.97 0-10.477-8.493-18.97-18.97-18.97h-131.68c-10.477 0-18.97 8.493-18.97 18.97 0 10.477 8.493 18.97 18.97 18.97z" fill="#00da80"/><path d="m511.902 278.555c-.97 9.564-9.048 17.022-18.869 17.022h-131.681c-5.241 0-9.986-2.125-13.412-5.55-3.435-3.436-5.561-8.171-5.561-13.412 0-10.481 8.491-18.972 18.972-18.972h16.919c-.072.639-.103 1.29-.103 1.939 0 5.23 2.125 9.976 5.55 13.412 3.435 3.436 8.181 5.56 13.422 5.56h114.763z" fill="#00a763"/><path d="m234.346 33.278c36.528-36.528 95.752-36.528 132.28 0s36.528 95.752 0 132.28z" fill="#f1f4f6"/><path d="m366.626 33.277c-12.865-12.865-52.904 6.324-89.435 42.845l-42.845-42.845c36.521-36.531 95.749-36.531 132.28 0z" fill="#cedfe2"/></g></svg>