<svg height="480pt" viewBox="-24 0 480 480" width="480pt" xmlns="http://www.w3.org/2000/svg"><path d="m408 80c-13.257812 0-24 10.742188-24 24v104l-32 40.726562v-16.726562c0-8.839844-7.160156-16-16-16h-1.046875c-4.433594 0-8.671875 1.839844-11.695313 5.078125l-98.648437 105.699219c-5.539063 5.925781-8.609375 13.726562-8.609375 21.839844v131.382812h96v-66.742188c0-8.488281 3.367188-16.625 9.375-22.625l62.625-62.632812 48-88v-136c0-13.257812-10.742188-24-24-24zm0 0" fill="#efbe9a"/><path d="m312 64c0-35.34375-25.070312-64-56-64-15.679688 0-29.832031 7.382812-40 19.246094-10.167969-11.863282-24.320312-19.246094-40-19.246094-30.929688 0-56 28.65625-56 64 0 21.734375 9.503906 40.910156 24 52.480469v3.519531c0 31.792969 5.128906 63.375 15.175781 93.535156l6.289063 18.871094c1.519531 4.539062 5.757812 7.59375 10.535156 7.59375s9.015625-3.054688 10.527344-7.59375l21.472656-64.40625h16l21.472656 64.40625c1.511719 4.539062 5.75 7.59375 10.527344 7.59375s9.015625-3.054688 10.527344-7.59375l6.289062-18.871094c10.054688-30.160156 15.183594-61.742187 15.183594-93.535156v-3.519531c14.496094-11.570313 24-30.746094 24-52.480469zm0 0" fill="#b8cbd9"/><path d="m216 19.246094c-10.167969-11.863282-24.320312-19.246094-40-19.246094-30.929688 0-56 28.65625-56 64 0 21.734375 9.503906 40.910156 24 52.480469v3.519531c0 16.039062 1.3125 32.03125 3.894531 47.816406 73.296875-1.960937 132.105469-58.359375 132.105469-127.816406 0-12.664062-2.023438-24.863281-5.664062-36.414062-5.75-2.28125-11.902344-3.585938-18.335938-3.585938-15.679688 0-29.832031 7.382812-40 19.246094zm0 0" fill="#e8eff4"/><path d="m281.679688 315.078125 56.035156-71.980469 12.625 9.832032-56.035156 71.976562zm0 0" fill="#db9b7c"/><path d="m24 80c13.257812 0 24 10.742188 24 24v104l32 40.726562v-16.726562c0-8.839844 7.160156-16 16-16h1.046875c4.433594 0 8.671875 1.839844 11.695313 5.078125l98.648437 105.699219c5.539063 5.925781 8.609375 13.726562 8.609375 21.839844v131.382812h-96v-66.742188c0-8.488281-3.367188-16.625-9.375-22.625l-62.625-62.632812-48-88v-136c0-13.257812 10.742188-24 24-24zm0 0" fill="#efbe9a"/><path d="m81.675781 252.925781 12.628907-9.828125 56.03125 71.976563-12.625 9.828125zm0 0" fill="#db9b7c"/></svg>